<svg width="132" height="62" viewBox="0 0 132 62" fill="none" xmlns="http://www.w3.org/2000/svg">
<g clip-path="url(#clip0_3516_1174)">
<path fill-rule="evenodd" clip-rule="evenodd" d="M18.0303 40C27.8764 40 35.9324 31.959 35.9324 22.0513C35.9324 12.1436 27.8764 4.10254 18.0303 4.10254C8.14832 4.10254 0.128174 12.1436 0.128174 22.0513C0.128174 31.959 8.14832 40 18.0303 40Z" fill="#299400"/>
<path fill-rule="evenodd" clip-rule="evenodd" d="M18.0302 9.71155C24.1841 9.71155 28.3612 14.4605 28.3612 19.5833C28.3612 21.64 27.9137 23.4348 26.8694 25.6784C20.7528 25.6784 19.634 29.7543 19.3729 32.484L19.1864 34.391H16.874L16.6876 32.484C16.4265 29.7543 15.3076 25.6784 9.19106 25.6784C8.14677 23.4348 7.69922 21.64 7.69922 19.5833C7.69922 14.4605 11.8764 9.71155 18.0302 9.71155Z" fill="white"/>
<path fill-rule="evenodd" clip-rule="evenodd" d="M52.0442 9.71155C46.226 9.71155 41.8624 13.2639 41.8997 19.4338H47.3076C47.233 16.9658 48.7994 14.5727 52.0442 14.5727C54.5057 14.5727 56.0721 16.218 56.0721 18.312C56.0721 20.4808 54.3565 21.6774 51.5966 23.0235C47.9789 24.781 45.8157 25.6036 41.8997 26.9124V34.0171H61.2936V29.156H49.2097C51.079 28.3752 52.899 27.5167 54.543 26.7254C58.9066 24.6314 61.4801 22.2756 61.4801 18.0502C61.4801 12.9648 57.6759 9.71155 52.0442 9.71155ZM69.8717 14.9466H81.0605V10.0855H64.6502V34.0171H69.8717V14.9466ZM88.8927 10.0855H83.6712V34.0171H88.8554L98.5896 18.7233V34.0171H103.811V10.0855H98.5896L88.8927 25.3793V10.0855ZM130.03 25.0427H124.622C123.802 27.6977 121.303 29.5299 118.357 29.5299C114.067 29.5299 111.27 25.828 111.27 22.0513C111.27 18.2746 113.993 14.5727 118.506 14.5727C121.489 14.5727 123.802 16.4049 124.622 19.0598H130.03C129.247 13.7126 125.033 9.71155 118.357 9.71155C110.972 9.71155 106.049 14.9092 106.049 22.0513C106.049 29.1934 110.972 34.391 118.357 34.391C125.033 34.391 129.247 30.4648 130.03 25.0427Z" fill="#2B3131"/>
</g>
<path d="M15.7693 40L18.2389 47.6008H26.2309L19.7653 52.2984L22.2349 59.8992L15.7693 55.2016L9.30365 59.8992L11.7733 52.2984L5.30767 47.6008H13.2996L15.7693 40Z" fill="#FBBC05"/>
<path d="M40.7693 40L43.2389 47.6008H51.2309L44.7653 52.2984L47.2349 59.8992L40.7693 55.2016L34.3036 59.8992L36.7733 52.2984L30.3077 47.6008H38.2996L40.7693 40Z" fill="#FBBC05"/>
<path d="M65.7693 40L68.2389 47.6008H76.2309L69.7653 52.2984L72.2349 59.8992L65.7693 55.2016L59.3036 59.8992L61.7733 52.2984L55.3077 47.6008H63.2996L65.7693 40Z" fill="#FBBC05"/>
<path d="M90.7693 40L93.2389 47.6008H101.231L94.7653 52.2984L97.2349 59.8992L90.7693 55.2016L84.3036 59.8992L86.7733 52.2984L80.3077 47.6008H88.2996L90.7693 40Z" fill="#FBBC05"/>
<path d="M115.769 40L118.239 47.6008H126.231L119.765 52.2984L122.235 59.8992L115.769 55.2016L109.304 59.8992L111.773 52.2984L105.308 47.6008H113.3L115.769 40Z" fill="#FBBC05"/>
<defs>
<clipPath id="clip0_3516_1174">
<rect width="131.282" height="40" fill="white" transform="translate(0.128174)"/>
</clipPath>
</defs>
</svg>
