<svg width="38" height="20" viewBox="0 0 38 20" fill="none" xmlns="http://www.w3.org/2000/svg">
                        <path
                            d="M8.59525 10.9229L13.4246 4.82812H8.59525L4.533 9.94806V4.82812H0V19.9999H4.533V16.3844L5.78768 14.7763L9.46734 19.9999H15.1894L8.59525 10.9229Z"
                            fill="#2B3131" />
                        <path
                            d="M16.7045 7.62233C17.8148 6.86048 18.5875 5.58434 18.5256 4.17578C18.4262 1.91326 16.7326 0 14.4446 0C13.3606 0 12.299 0.497025 11.5301 1.27998L11.5282 1.2819C11.5038 1.30685 11.4738 1.33755 11.4438 1.37018C11.1963 1.63308 10.96 1.90558 10.7349 2.18768L9.26267 4.02801L14.077 4.03185C14.1351 3.88409 14.287 3.7747 14.4446 3.7747C14.6134 3.7747 14.7484 3.88409 14.8065 4.03185L14.8272 4.09902C14.8328 4.12396 14.8365 4.15083 14.8365 4.17578C14.8403 4.2487 14.8178 4.31587 14.7822 4.37536V4.37919L14.7765 4.38687C14.7596 4.41182 14.7428 4.43484 14.7203 4.45595L9.58525 10.9422L9.62838 10.9998H18.8407V7.62233H16.7045Z"
                            fill="#2B3131" />
                        <path d="M38.0003 12.4875V13.7193H35.9482V18.9058H34.4165V13.7193H32.3645V12.4875H38.0003Z"
                            fill="#2B3131" />
                        <path
                            d="M27.3986 18.9058V12.4875H31.9544V13.7008H28.9303V15.0438H31.6206V16.257H28.9303V18.9058H27.3986Z"
                            fill="#2B3131" />
                        <path
                            d="M21.714 15.6921C21.714 16.007 21.7533 16.291 21.8318 16.5441C21.9169 16.7973 22.0347 17.0165 22.1853 17.2017C22.3424 17.3808 22.5322 17.5197 22.7548 17.6185C22.9773 17.7173 23.2326 17.7667 23.5206 17.7667C23.8021 17.7667 24.0541 17.7173 24.2766 17.6185C24.5057 17.5197 24.6955 17.3808 24.8461 17.2017C25.0032 17.0165 25.121 16.7973 25.1996 16.5441C25.2847 16.291 25.3272 16.007 25.3272 15.6921C25.3272 15.3772 25.2847 15.0931 25.1996 14.84C25.121 14.5807 25.0032 14.3615 24.8461 14.1824C24.6955 13.9972 24.5057 13.8552 24.2766 13.7564C24.0541 13.6576 23.8021 13.6082 23.5206 13.6082C23.2326 13.6082 22.9773 13.6607 22.7548 13.7656C22.5322 13.8644 22.3424 14.0064 22.1853 14.1917C22.0347 14.3707 21.9169 14.5899 21.8318 14.8492C21.7533 15.1024 21.714 15.3833 21.714 15.6921ZM26.908 15.6921C26.908 16.2416 26.8196 16.7263 26.6429 17.1461C26.4727 17.5598 26.237 17.9087 25.9359 18.1927C25.6348 18.4705 25.2748 18.6805 24.8559 18.8225C24.4435 18.9645 23.9984 19.0355 23.5206 19.0355C23.0559 19.0355 22.6173 18.9645 22.2049 18.8225C21.7926 18.6805 21.4325 18.4705 21.1249 18.1927C20.8173 17.9087 20.5751 17.5598 20.3983 17.1461C20.2216 16.7263 20.1332 16.2416 20.1332 15.6921C20.1332 15.1425 20.2249 14.6609 20.4081 14.2472C20.5914 13.8274 20.8369 13.4754 21.1445 13.1914C21.4587 12.9074 21.8187 12.6944 22.2246 12.5524C22.6369 12.4104 23.069 12.3394 23.5206 12.3394C23.9853 12.3394 24.4239 12.4104 24.8363 12.5524C25.2487 12.6944 25.6087 12.9074 25.9163 13.1914C26.224 13.4754 26.4661 13.8274 26.6429 14.2472C26.8196 14.6609 26.908 15.1425 26.908 15.6921Z"
                            fill="#2B3131" />
                        <path
                            d="M17.3538 17.8035C17.5698 17.8035 17.7466 17.788 17.884 17.7571C18.028 17.7201 18.1426 17.6738 18.2277 17.6182C18.3128 17.5565 18.3717 17.4855 18.4044 17.4052C18.4371 17.3249 18.4535 17.2354 18.4535 17.1366C18.4535 16.9267 18.3488 16.7538 18.1393 16.618C17.9299 16.476 17.5698 16.3247 17.0593 16.1642C16.8367 16.0901 16.6142 16.0067 16.3916 15.9141C16.1691 15.8153 15.9694 15.6949 15.7927 15.5529C15.616 15.4047 15.472 15.2287 15.3607 15.025C15.2494 14.815 15.1938 14.5619 15.1938 14.2655C15.1938 13.9692 15.2527 13.7037 15.3705 13.469C15.4883 13.2282 15.6552 13.0245 15.8713 12.8578C16.0873 12.6911 16.3491 12.5645 16.6567 12.478C16.9644 12.3854 17.3113 12.3391 17.6975 12.3391C18.1557 12.3391 18.5517 12.3854 18.8855 12.478C19.2194 12.5707 19.4943 12.6725 19.7103 12.7837L19.2684 13.9228C19.0786 13.8302 18.8659 13.75 18.6302 13.682C18.4011 13.608 18.123 13.5709 17.7957 13.5709C17.4291 13.5709 17.164 13.6203 17.0004 13.7191C16.8433 13.8117 16.7647 13.9568 16.7647 14.1544C16.7647 14.2717 16.7942 14.3705 16.8531 14.4508C16.912 14.531 16.9938 14.6051 17.0986 14.673C17.2098 14.7348 17.3342 14.7934 17.4717 14.849C17.6157 14.8984 17.7728 14.9509 17.943 15.0065C18.2964 15.1299 18.6041 15.2534 18.8659 15.3769C19.1277 15.4942 19.3437 15.6332 19.5139 15.7937C19.6906 15.9542 19.8216 16.1425 19.9066 16.3586C19.9917 16.5748 20.0343 16.8372 20.0343 17.1459C20.0343 17.7448 19.8117 18.211 19.3666 18.5444C18.9215 18.8716 18.2506 19.0353 17.3538 19.0353C17.0527 19.0353 16.7811 19.0167 16.5389 18.9797C16.2967 18.9488 16.0807 18.9087 15.8909 18.8593C15.7076 18.8099 15.5472 18.7574 15.4098 18.7018C15.2789 18.6463 15.1676 18.5938 15.076 18.5444L15.508 17.3959C15.7109 17.5009 15.9596 17.5966 16.2542 17.6831C16.5553 17.7633 16.9218 17.8035 17.3538 17.8035Z"
                            fill="#2B3131" />
                    </svg>