<svg width="123" height="62" viewBox="0 0 123 62" fill="none" xmlns="http://www.w3.org/2000/svg">
<g clip-path="url(#clip0_2856_24741)">
<path fill-rule="evenodd" clip-rule="evenodd" d="M30.4332 14.1943H16.3257V18.3578H26.3309C25.8365 24.1978 20.9532 26.6892 16.344 26.6892C10.4468 26.6892 5.29979 22.0721 5.29979 15.6012C5.29979 9.30405 10.2059 4.44691 16.3565 4.44691C21.1028 4.44691 23.8989 7.45833 23.8989 7.45833L26.8298 4.44119C26.8298 4.44119 23.0677 0.273193 16.2069 0.273193C7.47026 0.273193 0.713379 7.61033 0.713379 15.5349C0.713379 23.2995 7.06951 30.8721 16.4296 30.8721C24.6616 30.8721 30.6901 25.2606 30.6901 16.9635C30.6901 15.2115 30.4389 14.1978 30.4389 14.1978L30.4332 14.1943Z" fill="#2B3131"/>
<path fill-rule="evenodd" clip-rule="evenodd" d="M41.9878 11.1772C36.1991 11.1772 32.0522 15.6801 32.0522 20.9304C32.0522 26.2595 36.0758 30.8458 42.0563 30.8458C47.4705 30.8458 51.9062 26.7281 51.9062 21.0458C51.9062 14.5315 46.7454 11.1772 41.9878 11.1772ZM42.0449 15.0401C44.8924 15.0401 47.5892 17.3292 47.5892 21.0195C47.5892 24.631 44.9038 26.9852 42.0323 26.9852C38.8776 26.9852 36.3898 24.471 36.3898 20.991C36.3898 17.5852 38.8468 15.0401 42.0449 15.0401Z" fill="#2B3131"/>
<path fill-rule="evenodd" clip-rule="evenodd" d="M63.5976 11.1772C57.8089 11.1772 53.6621 15.6801 53.6621 20.9304C53.6621 26.2595 57.6925 30.8458 63.673 30.8458C69.0872 30.8458 73.5229 26.7281 73.5229 21.0458C73.5229 14.5315 68.3622 11.1772 63.6056 11.1772H63.5976ZM63.6547 15.0401C66.5022 15.0401 69.1991 17.3292 69.1991 21.0195C69.1991 24.631 66.5068 26.9852 63.6387 26.9852C60.4807 26.9852 57.9985 24.471 57.9985 20.991C57.9985 17.5852 60.4532 15.0401 63.6502 15.0401H63.6547Z" fill="#2B3131"/>
<path fill-rule="evenodd" clip-rule="evenodd" d="M84.7941 11.1886C79.4815 11.1886 75.3062 15.8172 75.3062 21.0137C75.3062 26.9337 80.1472 30.8595 84.7028 30.8595C87.5195 30.8595 89.0186 29.7463 90.1227 28.4709V30.408C90.1227 33.8023 88.0527 35.8332 84.9277 35.8332C81.9078 35.8332 80.3949 33.6 79.8675 32.3326L76.0688 33.9189C77.4161 36.7532 80.1289 39.7109 84.9585 39.7109C90.2414 39.7109 94.2672 36.4023 94.2672 29.4595V11.7795H90.1227V13.448C88.8485 12.08 87.1061 11.1886 84.7941 11.1886ZM85.1789 15.0423C87.7821 15.0423 90.4572 17.256 90.4572 21.0343C90.4572 24.8766 87.7889 26.9932 85.1206 26.9932C82.2891 26.9932 79.6517 24.6983 79.6517 21.064C79.6517 17.288 82.3896 15.0355 85.1777 15.0355L85.1789 15.0423Z" fill="#2B3131"/>
<path fill-rule="evenodd" clip-rule="evenodd" d="M112.693 11.1635C107.681 11.1635 103.473 15.1315 103.473 20.9852C103.473 27.1795 108.164 30.8537 113.174 30.8537C117.356 30.8537 119.921 28.5772 121.454 26.5372L118.038 24.2743C117.15 25.6457 115.668 26.9829 113.194 26.9829C110.416 26.9829 109.139 25.4686 108.348 24.0023L121.6 18.5303L120.913 16.9269C119.631 13.7932 116.646 11.1669 112.692 11.1669L112.693 11.1635ZM112.864 14.9463C114.671 14.9463 115.97 15.9017 116.522 17.0469L107.672 20.7269C107.29 17.8777 110.004 14.9463 112.867 14.9463H112.864Z" fill="#2B3131"/>
<path fill-rule="evenodd" clip-rule="evenodd" d="M97.1548 30.2698H101.508V1.28235H97.1548V30.2698Z" fill="#2B3131"/>
</g>
<path d="M11.1282 40L13.5978 47.6008H21.5898L15.1242 52.2984L17.5938 59.8992L11.1282 55.2016L4.66254 59.8992L7.13219 52.2984L0.666553 47.6008H8.65852L11.1282 40Z" fill="#FBBC05"/>
<path d="M36.1282 40L38.5978 47.6008H46.5898L40.1242 52.2984L42.5938 59.8992L36.1282 55.2016L29.6625 59.8992L32.1322 52.2984L25.6666 47.6008H33.6585L36.1282 40Z" fill="#FBBC05"/>
<path d="M61.1282 40L63.5978 47.6008H71.5898L65.1242 52.2984L67.5938 59.8992L61.1282 55.2016L54.6625 59.8992L57.1322 52.2984L50.6666 47.6008H58.6585L61.1282 40Z" fill="#FBBC05"/>
<path d="M86.1282 40L88.5978 47.6008H96.5898L90.1242 52.2984L92.5938 59.8992L86.1282 55.2016L79.6625 59.8992L82.1322 52.2984L75.6666 47.6008H83.6585L86.1282 40Z" fill="#FBBC05"/>
<path d="M111.128 40L113.598 47.6008H121.59L115.124 52.2984L117.594 59.8992L111.128 55.2016L104.663 59.8992L107.132 52.2984L100.667 47.6008H108.659L111.128 40Z" fill="#FBBC05"/>
<defs>
<clipPath id="clip0_2856_24741">
<rect width="121.026" height="40" fill="white" transform="translate(0.615234)"/>
</clipPath>
</defs>
</svg>
