<svg width="126" height="62" viewBox="0 0 126 62" fill="none" xmlns="http://www.w3.org/2000/svg">
<path d="M119.298 35.3604C121.753 35.3604 123.492 34.9202 124.787 33.9719V29.671C123.458 30.5854 121.855 31.1611 119.605 31.1611C115.82 31.1611 114.252 28.2487 114.252 23.643C114.252 18.8002 116.161 16.328 119.639 16.328C121.685 16.328 123.696 17.0392 124.753 17.7165V13.2462C123.628 12.6367 121.685 12.1964 119.025 12.1964C112.24 12.1964 108.729 17.0392 108.729 23.8123C108.763 31.2288 112.206 35.3604 119.298 35.3604ZM86.1237 33.3962V29.0953C84.4872 30.2129 81.6914 31.195 79.1343 31.195C75.2475 31.195 73.7814 29.3662 73.5427 25.641H86.3624V22.864C86.3624 15.1088 82.9188 12.1964 77.6341 12.1964C71.1561 12.1964 68.0875 17.1069 68.0875 23.8461C68.0875 31.6013 71.9403 35.3604 78.6911 35.3604C82.0664 35.3604 84.5554 34.446 86.1237 33.3962ZM37.4704 12.6028V21.4078H30.3786V12.6028H25.0598V34.9202H30.3786V25.6071H37.4704V34.9202H42.7892V12.6028H37.4704ZM66.7579 30.7208H64.4053V12.6028H48.9262V14.4993C48.9262 19.9516 48.5853 26.9956 46.7101 30.7208H45.0053V40H49.915V34.9202H61.8141V40H66.7238V30.7208H66.7579ZM103.069 34.9202H109.104L100.58 22.8979L108.081 12.6028H102.728L95.2271 22.8979V12.6028H89.9083V34.9202H95.2271V23.9477L103.069 34.9202ZM77.4977 16.328C80.123 16.328 80.9413 18.4954 80.9413 21.3062V21.7465H73.5427C73.6791 18.1906 74.9747 16.328 77.4977 16.328ZM59.0865 30.7208H51.5856C53.0517 27.3682 53.4608 21.2724 53.4608 17.4117V16.7344H59.0865V30.7208Z" fill="#444444"/>
<path d="M20.6274 34.9202H15.2063V8.268H12.7856C8.35324 8.268 6.03479 10.4693 6.03479 13.7542C6.03479 17.4794 7.63725 19.2066 10.9445 21.4078L13.672 23.2366L5.83022 34.9202H0L7.05764 24.4896C3.00035 21.611 0.715992 18.8002 0.715992 14.059C0.715992 8.13253 4.87557 4.10254 12.7515 4.10254H20.5933V34.9202H20.6274Z" fill="#444444"/>
<path d="M12.5642 40L15.0339 47.6008H23.0258L16.5602 52.2984L19.0298 59.8992L12.5642 55.2016L6.09857 59.8992L8.56822 52.2984L2.10259 47.6008H10.0946L12.5642 40Z" fill="#FBBC05"/>
<path d="M37.5642 40L40.0339 47.6008H48.0258L41.5602 52.2984L44.0298 59.8992L37.5642 55.2016L31.0986 59.8992L33.5682 52.2984L27.1026 47.6008H35.0946L37.5642 40Z" fill="#FBBC05"/>
<path d="M62.5642 40L65.0339 47.6008H73.0258L66.5602 52.2984L69.0298 59.8992L62.5642 55.2016L56.0986 59.8992L58.5682 52.2984L52.1026 47.6008H60.0946L62.5642 40Z" fill="#FBBC05"/>
<path d="M87.5642 40L90.0339 47.6008H98.0258L91.5602 52.2984L94.0298 59.8992L87.5642 55.2016L81.0986 59.8992L83.5682 52.2984L77.1026 47.6008H85.0946L87.5642 40Z" fill="#FBBC05"/>
<path d="M112.564 40L115.034 47.6008H123.026L116.56 52.2984L119.03 59.8992L112.564 55.2016L106.099 59.8992L108.568 52.2984L102.103 47.6008H110.095L112.564 40Z" fill="#FBBC05"/>
</svg>
