<svg width="70" height="165" viewBox="0 0 70 165" fill="none" xmlns="http://www.w3.org/2000/svg">
<path d="M29.9077 1.29281C29.5172 0.902283 28.884 0.90229 28.4935 1.29281L22.1295 7.65676C21.739 8.0473 21.739 8.68045 22.1295 9.07098C22.5201 9.4615 23.1532 9.46151 23.5438 9.07098L29.2006 3.41413L34.8575 9.07098C35.248 9.46151 35.8812 9.46151 36.2717 9.07099C36.6622 8.68046 36.6622 8.0473 36.2717 7.65677L29.9077 1.29281ZM65.7022 161.992C66.2545 161.992 66.7022 161.545 66.7022 160.992C66.7022 160.44 66.2545 159.992 65.7022 159.992L65.7022 161.992ZM29.2006 160.992L28.2016 161.036C28.2248 161.571 28.6652 161.992 29.2006 161.992L29.2006 160.992ZM28.2006 1.99992C28.2006 43.9533 26.7004 126.516 28.2016 161.036L30.1997 160.949C28.7009 126.484 30.2006 44.0467 30.2006 1.99991L28.2006 1.99992ZM29.2006 161.992C60.7006 161.992 47.1084 161.992 65.7022 161.992L65.7022 159.992C47.1084 159.992 60.7006 159.992 29.2006 159.992L29.2006 161.992Z" fill="#D8160C"/>
</svg>
