<svg width="81" height="80" viewBox="0 0 81 80" fill="none"
    xmlns="http://www.w3.org/2000/svg">
    <path
        d="M20.5 46.6667L25.5 37C26.0435 35.9205 26.8704 35.009 27.892 34.3632C28.9136 33.7173 30.0916 33.3613 31.3 33.3333H67.1666M67.1666 33.3333C68.1851 33.3316 69.1904 33.5631 70.1054 34.0103C71.0204 34.4574 71.8208 35.1083 72.4452 35.9129C73.0696 36.7175 73.5013 37.6545 73.7072 38.6519C73.9132 39.6493 73.8879 40.6806 73.6333 41.6667L68.5 61.6667C68.1286 63.1052 67.2873 64.3785 66.1097 65.2843C64.9321 66.1902 63.4856 66.6767 62 66.6667H13.8333C12.0652 66.6667 10.3695 65.9643 9.11925 64.7141C7.869 63.4638 7.16663 61.7681 7.16663 60V16.6667C7.16663 14.8986 7.869 13.2029 9.11925 11.9526C10.3695 10.7024 12.0652 10 13.8333 10H26.8333C27.9482 9.98908 29.0481 10.258 30.0323 10.7821C31.0164 11.3062 31.8534 12.0688 32.4666 13L35.1666 17C35.7737 17.9218 36.6 18.6784 37.5716 19.202C38.5432 19.7256 39.6296 19.9998 40.7333 20H60.5C62.2681 20 63.9638 20.7024 65.214 21.9526C66.4642 23.2029 67.1666 24.8986 67.1666 26.6667V33.3333Z"
        stroke="white" stroke-width="3" stroke-linecap="round" stroke-linejoin="round" />
</svg>