<svg width="82" height="80" viewBox="0 0 82 80" fill="none" xmlns="http://www.w3.org/2000/svg">
<path d="M36.7816 67.4329C53.7099 67.4329 67.4329 53.7099 67.4329 36.7816C67.4329 19.8533 53.7099 6.13025 36.7816 6.13025C19.8533 6.13025 6.13025 19.8533 6.13025 36.7816C6.13025 53.7099 19.8533 67.4329 36.7816 67.4329Z" stroke="black" stroke-width="3" stroke-linecap="round" stroke-linejoin="round"/>
<path d="M36.7817 18.3908V36.7816L24.5211 42.9118" stroke="black" stroke-width="3" stroke-linecap="round" stroke-linejoin="round"/>
<path d="M60.23 78.1609C71.1487 78.1609 80.0001 69.3095 80.0001 58.3908C80.0001 47.472 71.1487 38.6207 60.23 38.6207C49.3112 38.6207 40.4598 47.472 40.4598 58.3908C40.4598 69.3095 49.3112 78.1609 60.23 78.1609Z" fill="white" stroke="black" stroke-width="3" stroke-linecap="round" stroke-linejoin="round"/>
<path d="M51.4943 63.2643L61.6092 63.2643" stroke="black" stroke-width="3" stroke-linecap="round" stroke-linejoin="round"/>
<path d="M54.8658 57.6245H64.0612C65.6871 57.6245 67.2464 57.1078 68.396 56.1881C69.5456 55.2684 70.1915 54.021 70.1915 52.7203C70.1915 51.4196 69.5456 50.1722 68.396 49.2525C67.2464 48.3328 65.6871 47.8161 64.0612 47.8161H54.8658V69.885" stroke="black" stroke-width="3" stroke-linecap="round" stroke-linejoin="round"/>
</svg>
